<svg width="1920" height="172" viewBox="0 0 1920 172" fill="none" xmlns="http://www.w3.org/2000/svg">
<g id="Group">
<path id="Vector" fill-rule="evenodd" clip-rule="evenodd" d="M-0.190552 157.878C-0.190552 112.808 -0.190552 90.2737 -0.190552 90.2737C184.887 147.089 413.439 158.462 685.464 124.392C891.106 96.8949 1079.24 89.7343 1249.87 102.91C1554.01 126.947 1777.3 124.3 1919.78 94.8127V157.878H-0.19104L-0.190552 157.878Z" fill="#EFEFEF"/>
<path id="Vector_2" fill-rule="evenodd" clip-rule="evenodd" d="M0.960366 171.139C-0.397106 84.9112 -1.07584 41.7975 -1.07584 41.7975C185.685 146.468 414.543 163.251 685.5 92.146C890.282 35.0618 1078.17 17.2663 1249.18 38.7599C1553.99 78.1272 1777.17 68.2015 1918.73 8.68405L1920.63 129.341L0.959873 171.139L0.960366 171.139Z" fill="#EFEFEF" fill-opacity="0.3"/>
</g>
</svg>
